<?xml version="1.0" encoding="utf-8"?>
<!-- Generator: Adobe Illustrator 22.1.0, SVG Export Plug-In . SVG Version: 6.00 Build 0)  -->
<svg version="1.1" id="Calque_1" xmlns="http://www.w3.org/2000/svg" xmlns:xlink="http://www.w3.org/1999/xlink" x="0px" y="0px"
	 viewBox="0 0 2834.6 1700.8" style="enable-background:new 0 0 2834.6 1700.8;" xml:space="preserve">
<style type="text/css">
	.st0{fill:none;stroke:#FF0000;stroke-width:2.834646e-02;stroke-miterlimit:10;}
</style>
<path class="st0" d="M214.1,1149.4l124.9-0.9c1.6,0,3.3-0.5,4.6-1.4l104.5-69c3.2-2.1,4.6-6.1,3.4-9.8L230.6,404.8
	c-0.6-1.9,0.1-4.1,1.8-5.2l85.5-56.5c7-4.6,3.7-15.6-4.7-15.6H214c-4.7,0-8.5,3.8-8.5,8.5v398c0,2.5,2,4.5,4.5,4.5h61
	c2.5,0,4.5,2,4.5,4.5l0,0c0,2.5-2,4.5-4.5,4.5h-61c-2.5,0-4.5,2-4.5,4.5v388.9C205.5,1145.7,209.3,1149.5,214.1,1149.4z"/>
<path class="st0" d="M478.5,1140V336c0-4.7-3.8-8.5-8.5-8.5H341.5l-106.6,70.4c-3.2,2.1-4.6,6.1-3.4,9.8L342,738.5h70.4v9L342,747
	l109.3,321.3c1.2,3.7-0.1,7.7-3.4,9.8l-82.9,54.8c-7,4.6-3.7,15.6,4.7,15.6H470C474.7,1148.5,478.5,1144.7,478.5,1140z"/>
</svg>
